<?xml version="1.0" encoding="UTF-8"?>
<svg version="1.1" viewBox="0 0 1600 1600" width="1280" height="1280" xmlns="http://www.w3.org/2000/svg">
<path transform="translate(0)" d="m0 0h1600v1600h-1600z" fill="#FEFFFE"/>
<path transform="translate(819,746)" d="m0 0h3v257l-14 1-296 11-168 6-20 1h-23l-3-14-7-43-20-121v-5l21-4 72-12 40-7 362-61z" fill="#EF3700"/>
<path transform="translate(819,746)" d="m0 0h3v257l-14 1-296 11-168 6-20 1h-23l-3-14-7-43-20-121v-5l21-4 72-12 40-7 362-61zm-9 10-43 7-40 7-48 8-34 6-26 4-34 6-31 5-16 3-13 2-53 9-108 18-34 6-48 8-1 1v8l5 31 9 54 3 16 4 27 3 19 2 11 6 2 36-1 13-1 38-1 72-3 35-1 17-1 147-5 17-1 33-1 16-1 43-1 33-2 1-52v-186z" fill="#A33415"/>
<path transform="translate(460,862)" d="m0 0h10l5 54 2 22v13l-7 1-1-1-3-31-4-43-2 3-9 27-6 21-9 26-4 1-5-8-11-20-8-16-15-29v12l5 58v6h-8l-1-1-6-71-1-16 1-1h13l10 19 8 16 12 23 5 9v2h2l3-12 9-28 11-35z" fill="#FEFFFE"/>
<path transform="translate(976,842)" d="m0 0h11v4l9-4h13l8 4 3 2 8-5 3-1h14l7 4 4 5 2 5v36h-12l-1-32-3-5-2-1h-9l-4 2-2 3-1 5-1 28h-12l-1-30-3-7-2-1h-10l-5 5-1 3-1 30h-12z" fill="#E73702"/>
<path transform="translate(855,748)" d="m0 0h9l8 13 15 25 4-5 9-16 6-10 5-7h9l1 33v27l-1 1h-11l-1-35-8 13-9 15h-7l-13-21-5-8-1 36h-11v-60z" fill="#E83702"/>
<path transform="translate(932,842)" d="m0 0h14l8 3 6 5 5 10v14l-3 7-6 7-8 4h-18l-8-4-7-8-3-10v-7l3-9 6-7 7-4z" fill="#E63702"/>
<path transform="translate(685,872)" d="m0 0h15l10 5 6 7 4 9v9l-28 3-20 1 2 8 5 7 7 4h15l8-5 4-5 5 2 2 3-8 8-8 4-4 1h-14l-10-4-8-8-4-8-1-4v-14l3-8 6-8 10-6z" fill="#FEFFFE"/>
<path transform="translate(512,887)" d="m0 0h16l7 4 5 6 2 7 3 32 1 8-1 1h-6l-2-7-5 5-8 5-4 1h-10l-8-3-5-5-2-5v-8l2-5 8-7 10-4 19-3-2-9-1-3-5-2h-14l-10 5-4 1-2-2v-4l10-6z" fill="#FEFFFE"/>
<path transform="translate(1167,762)" d="m0 0h10l9 3 5 4 4 7 1 2v16l-5 8-6 5-9 3h-8l-10-3-6-5-5-10v-12l4-9 7-6z" fill="#E43703"/>
<path transform="translate(1088,762)" d="m0 0h10l10 4 6 7 2 5v12h-35l4 6 6 3h8l6-3h4l4 5-2 4-7 4-5 1h-9l-11-4-5-4-5-10v-13l4-8 8-7z" fill="#E33703"/>
<path transform="translate(947,762)" d="m0 0h11l9 3 5 5 2 5v34h-11l-1-3-8 4h-10l-8-4-4-5v-11l5-6 6-2 19-1-2-6-3-2h-11l-9 3-4-8 3-3z" fill="#E73702"/>
<path transform="translate(1206,763)" d="m0 0h11l1 29 3 5 5 2 6-1 4-2 3-7 1-26h11v46h-11l-1-3-9 4h-9l-9-4-4-5-2-5z" fill="#E53703"/>
<path transform="translate(879,842)" d="m0 0h15l10 5 4 5-1 3-8 4-5-4-5-2-9 1-5 4-2 5v9l4 6 6 3h7l6-3 2-2 5 1 5 3-2 5-8 6-2 1h-19l-10-6-6-9-1-3v-13l3-7 4-6z" fill="#E63702"/>
<path transform="translate(1275,762)" d="m0 0h12l9 2 2 1-1 6-4 4-9-3-9 1-2 1v4l4 2 14 3 6 3 3 4v10l-6 7-9 3h-11l-11-3-3-2 1-6 2-3 10 3h13l2-2v-3l-5-2-14-3-6-4-2-3v-10l4-6z" fill="#E43703"/>
<path transform="translate(1017,763)" d="m0 0h12l4 9 9 21 1 1 13-31h12l-2 6-15 35-3 5h-12l-15-35-4-9z" fill="#E53703"/>
<path transform="translate(644,877)" d="m0 0h7l-2 9-15 49-1 2-9 1-10-19-8-15-10-20v-3h8l10 19 9 19 4 8 2 1 2-10 11-38z" fill="#FEFFFE"/>
<path transform="translate(944,960)" d="m0 0h5v3l5-3h11l6 4 3 5v11l-4 6-5 3-8 1-7-3-1 12-4 1-1-1z" fill="#F03700"/>
<path transform="translate(733,832)" d="m0 0h7l2 14 6 70v11l-7 1-2-15-5-57z" fill="#FEFFFE"/>
<path transform="translate(916,960)" d="m0 0h12l6 4 3 6v9l-3 6-6 4-8 1-7-3-5-6-1-3v-7l4-8z" fill="#F13800"/>
<path transform="translate(1046,960)" d="m0 0h12l6 4 3 5v11l-4 6-5 3-8 1-7-3-5-6-1-9 3-7z" fill="#F13800"/>
<path transform="translate(1008,762)" d="m0 0h6l1 2-1 9-9 2-5 5-1 28-1 1h-11v-46h11v4l7-4z" fill="#EE3700"/>
<path transform="translate(1126,745)" d="m0 0h11v64h-11z" fill="#E73702"/>
<path transform="translate(936,852)" d="m0 0 9 1 6 5 2 5v9l-4 6-5 4h-9l-7-4-3-6v-10l3-6z" fill="#FEFFFE"/>
<path transform="translate(686,879)" d="m0 0h14l5 3 5 6 2 8-1 1-34 3h-6l1-9 6-8z" fill="#EF3700"/>
<path transform="translate(528,916)" d="m0 0h7v15l-4 6-6 4-3 1h-11l-6-4-1-2v-10l6-5 7-3z" fill="#F03700"/>
<path transform="translate(588,880)" d="m0 0 5 1v6l-7 2-7 3-5 5-2 5v15l2 25-1 1h-6l-2-7-4-44v-7l1-1h6l2 9 6-8 7-4z" fill="#FEFFFE"/>
<path transform="translate(1168,772)" d="m0 0h8l6 4 3 6v7l-3 7-7 4h-7l-6-4-3-4v-12l6-7z" fill="#FEFFFE"/>
<path transform="translate(997,950)" d="m0 0 5 1 10 13 11 14h1l1-28h4v39l-5-1-8-10v-2h-2l-7-9-5-5-1 27-5-1v-37z" fill="#F03700"/>
<path transform="translate(1069,960)" d="m0 0h5l7 20v2h2l3-11 5-11 5 1 7 19 1 1 8-21h4l-1 7-8 21-5 1-4-8-4-10v-3h-2l-3 10-4 10-5 1-4-8-6-16z" fill="#F03700"/>
<path transform="translate(845,950)" d="m0 0h14l5 3-1 3-7-1h-9l-4 4v5l18 6 4 4 1 7-3 5-5 3-10 1-9-3-2-2v-3l6 1 3 1h10l4-3 1-5-5-2-13-4-5-4v-10l5-5z" fill="#F03700"/>
<path transform="translate(873,948)" d="m0 0 5 1 1 13 3-2h12l5 5 1 3v21h-4l-1-18-2-5-2-1h-8l-4 3-1 20-5 1z" fill="#F03700"/>
<path transform="translate(955,964)" d="m0 0h8l5 4 2 9-3 5-4 3h-8l-6-6v-9l4-5z" fill="#FEFFFE"/>
<path transform="translate(1048,964)" d="m0 0h9l5 5 1 7-2 5-5 4h-8l-5-5-1-2v-7l1-3h2v-2z" fill="#FEFFFE"/>
<path transform="translate(918,964)" d="m0 0h8l5 4 1 2v10l-6 5h-8l-5-4-1-2v-9l4-5z" fill="#FEFFFE"/>
<path transform="translate(1091,771)" d="m0 0 7 1 6 4 1 6h-25l4-8z" fill="#FEFFFE"/>
<path transform="translate(842,877)" d="m0 0h8l4 4v7l-3 4h-9l-3-4-1-4 2-5z" fill="#DF3704"/>
<path transform="translate(950,789)" d="m0 0h12v7l-4 4-3 1h-8l-4-4 1-6z" fill="#FEFFFE"/>
<path transform="translate(528,916)" d="m0 0h7v15l-4 6-3-1 4-5 1-3v-10l-20 4-7 6 1 7 5 4h9l6-1v2l-5 2h-11l-6-4-1-2v-10l6-5 7-3z" fill="#C2350C"/>
<path transform="translate(987,763)" d="m0 0h10l-1 4v-3l-6 1-1 42h8v-27h1v29h-11z" fill="#BA350F"/>
<path transform="translate(686,879)" d="m0 0h14l5 3 5 6 2 8-3-1-2-7-1-3-4-2-5-2h-9l-9 5-5 7-1 5 7-1h14l-4 2-19 1 1-9 6-8z" fill="#C2350C"/>
<path transform="translate(911,748)" d="m0 0h9l1 33v27l-1 1h-9l-1-4 1 2h8l-1-56h-6l-2 1z" fill="#BB350E"/>
<path transform="translate(402,902)" d="m0 0 3 1 11 21 8 16 6 11-1 4-20-38-7-13z" fill="#C3350C"/>
<path transform="translate(606,882)" d="m0 0 3 3 11 23 7 15 2-5h1v7l-1 3-3-1-14-29-6-12z" fill="#C0350D"/>
<path transform="translate(451,905)" d="m0 0h2l-1 7-12 36h-1l1-9 7-21z" fill="#C1350D"/>
<path transform="translate(528,916)" d="m0 0h7v15l-4 6-3-1 4-5 1-3v-10l-5 1-14 2v-2z" fill="#C0350D"/>
<path transform="translate(976,842)" d="m0 0h11v5l-2-1v-2h-8v47h-1z" fill="#AC3413"/>
<path transform="translate(1026,781)" d="m0 0 2 3 10 22h10v3h-12l-10-23z" fill="#C7350B"/>
<path transform="translate(461,874)" d="m0 0 2 3v15h-1v-8h-2l-3 11-2 7h-1l1-9z" fill="#BE350E"/>
<path transform="translate(686,879)" d="m0 0h14l5 3 5 6 2 8-3-1-2-7-1-3-4-2-5-2h-9l-6 2 1-3z" fill="#BD350E"/>
<path transform="translate(584,879)" d="m0 0h10v1l-13 3-6 4-5 7h-1v-10l1 3 8-6z" fill="#BA350F"/>
<path transform="translate(498,944)" d="m0 0 4 1 8 3h10l6-2 4 1-6 3-13 1-10-3z" fill="#BE350E"/>
<path transform="translate(522,909)" d="m0 0h9l-4 2-15 3-9 4-3-1 6-4z" fill="#BD350E"/>
<path transform="translate(382,867)" d="m0 0h15l6 11v2l-3-1-4-8v-2h-15z" fill="#BF350D"/>
<path transform="translate(609,912)" d="m0 0 5 5 9 18-1 3-4-6-8-16z" fill="#BF350D"/>
<path transform="translate(618,909)" d="m0 0 3 1 6 13 2-5h1v7l-1 3-3-1-8-16z" fill="#C5350C"/>
<path transform="translate(512,894)" d="m0 0h14v2h-10l-8 3-4 2-1 2h-2l1-4z" fill="#C1350D"/>
<path transform="translate(530,887)" d="m0 0 4 1 6 5 3 6v8l-2-3-3-8-4-5z" fill="#BF350D"/>
<path transform="translate(402,902)" d="m0 0 3 1 10 19-1 2-3-3-9-17z" fill="#C7350B"/>
<path transform="translate(408,890)" d="m0 0 3 3 7 14 1 4h-2l-9-17z" fill="#BE350E"/>
<path transform="translate(947,762)" d="m0 0h11l9 3 2 4-9-4-15-1z" fill="#C3350C"/>
<path transform="translate(869,847)" d="m0 0 3 1-6 5-4 11-1 6h-1v-9l3-7 4-6z" fill="#C1350D"/>
<path transform="translate(1008,762)" d="m0 0h6l1 2-1 9-11 1 3-3h7v-7h-5z" fill="#BE350E"/>
<path transform="translate(913,859)" d="m0 0h2v13l2 5v3h-2l-3-10v-7z" fill="#C3350C"/>
<path transform="translate(960,804)" d="m0 0h2l-1 3-7 3h-10v-2l11-1z" fill="#C1350D"/>
<path transform="translate(392,881)" d="m0 0 3 3 4 8-1 4-4-7-2-1z" fill="#BF350D"/>
<path transform="translate(1035,842)" d="m0 0h10l7 4 2 2-1 3-4-4-8-3-6-1z" fill="#BD350E"/>
<path transform="translate(865,752)" d="m0 0h2l7 12-1 4-8-13z" fill="#C0350D"/>
<path transform="translate(533,919)" d="m0 0h2v12l-4 6-3-1 4-5 1-3z" fill="#B73510"/>
<path transform="translate(422,940)" d="m0 0h2l6 11-1 4-7-13z" fill="#BB350F"/>
<path transform="translate(496,921)" d="m0 0 1 3-2 15-2-3v-9z" fill="#B63510"/>
<path transform="translate(926,844)" d="m0 0h5l-3 2-8 6-3 3 1-5z" fill="#C8360B"/>
<path transform="translate(718,921)" d="m0 0 2 1-6 7-6 4-2-1 10-9z" fill="#B63510"/>
<path transform="translate(710,916)" d="m0 0 1 3-6 5-7 1 1-2 7-3z" fill="#BC350E"/>
<path transform="translate(662,908)" d="m0 0 2 1 4 10 1 5-4-4-3-8z" fill="#C1350D"/>
<path transform="translate(681,881)" d="m0 0 2 1-5 5-4 6h-2l2-5 4-5z" fill="#CB360A"/>
<path transform="translate(582,889)" d="m0 0h10v1l-10 2-5 4-1-3z" fill="#BA350F"/>
<path transform="translate(1036,804)" d="m0 0 2 2h10v3h-12z" fill="#BE350E"/>
<path transform="translate(1189,800)" d="m0 0h2l-2 4-6 4h-5l2-2 7-4z" fill="#BE350E"/>
<path transform="translate(935,766)" d="m0 0 3 1-1 4v2h4v2l-4 1-4-8z" fill="#C6350B"/>
<path transform="translate(584,879)" d="m0 0h10v1l-13 3-4 1 1-3z" fill="#BC350E"/>
<path transform="translate(421,915)" d="m0 0 2 1 5 11h-3l-4-8z" fill="#C0350D"/>
</svg>
